<?xml version="1.0" encoding="utf-8"?><svg viewBox="0 0 122.88 122.88" xmlns="http://www.w3.org/2000/svg" xmlns:xlink="http://www.w3.org/1999/xlink"><style>:root>svg{display:none}:root>svg:target{display:block}</style><svg viewBox="0 0 122.88 66.91" id="angle" xmlns="http://www.w3.org/2000/svg"><path d="M11.68 64.96a6.875 6.875 0 01-9.73-.14 6.884 6.884 0 01.13-9.73L56.87 1.97l4.8 4.93-4.81-4.95a6.912 6.912 0 019.76.15c.08.08.15.16.23.24L120.8 55.1a6.884 6.884 0 01.13 9.73c-2.65 2.72-7 2.78-9.73.14L61.65 16.5 11.68 64.96z"/></svg><svg viewBox="0 0 93.81 122.88" id="cart" xmlns="http://www.w3.org/2000/svg"><path d="M28.98 31.32v-9.74h-.01c0-4.72 1.94-9.02 5.05-12.13 3.12-3.12 7.41-5.06 12.13-5.06v.01h.03v-.01c4.72 0 9.02 1.94 12.13 5.05 3.12 3.12 5.05 7.41 5.06 12.13h-.01v9.86A5.236 5.236 0 0065 41.64c2.89 0 5.24-2.35 5.24-5.24 0-1.88-.99-3.52-2.47-4.44V21.57h-.01c-.01-5.93-2.43-11.32-6.33-15.22C57.52 2.44 52.12.01 46.19.01V0h-.03v.01c-5.93 0-11.32 2.43-15.22 6.33-3.91 3.91-6.34 9.31-6.34 15.24h-.01v10.65a5.237 5.237 0 00-2.08 4.17c0 2.89 2.35 5.24 5.24 5.24s5.24-2.35 5.24-5.24c-.01-2.46-1.72-4.52-4.01-5.08zm-17.99.17h6.56a11.491 11.491 0 00-1.19 7.4h-3.23l-5.56 76.59h78.67l-5.56-76.59h-4.6c.11-.64.17-1.31.17-1.98 0-1.96-.49-3.8-1.36-5.42h7.92c1.41 0 2.64.57 3.55 1.48.88.88 1.44 2.07 1.53 3.36l5.89 81.19c.01.16.02.28.02.35 0 1.39-.59 2.62-1.5 3.52-.85.83-2 1.38-3.24 1.47-.16.01-.29.02-.36.02H5.1c-.07 0-.2-.01-.36-.02a5.18 5.18 0 01-3.24-1.47c-.92-.9-1.5-2.13-1.5-3.53 0-.07.01-.18.02-.35l5.89-81.19c.09-1.29.65-2.48 1.53-3.36.92-.9 2.15-1.47 3.55-1.47zm26.82 0h16.83a11.491 11.491 0 00-1.19 7.4H38.99c.11-.64.17-1.31.17-1.98.01-1.96-.49-3.8-1.35-5.42z"/></svg><svg viewBox="0 0 121.796 122.88" id="eye" xmlns="http://www.w3.org/2000/svg"><path d="M53.708 0c14.79 0 28.203 6.019 37.917 15.694 9.716 9.716 15.695 23.089 15.695 37.918a53.506 53.506 0 01-8.733 29.343l23.208 25.292-16.01 14.632-22.38-24.622c-8.496 5.664-18.723 8.969-29.697 8.969-14.789 0-28.202-6.019-37.918-15.694C6.282 82.022.353 69.01.105 54.559A3.066 3.066 0 01.1 52.985c.167-14.542 6.151-27.712 15.69-37.291C25.506 5.979 38.879 0 53.708 0zM6.83 45.144a75.226 75.226 0 011.896-1.786C21.102 32.093 35.8 26.075 50.951 25.772c15.118-.302 30.622 5.095 44.643 16.655a91.065 91.065 0 015.313 4.744c-1.435-10.568-6.347-20.047-13.529-27.229-8.614-8.613-20.532-13.963-33.67-13.963-13.138 0-25.056 5.35-33.67 13.964-6.719 6.719-11.452 15.45-13.208 25.201zm93.839 16.469a62.243 62.243 0 01-7.324 6.896C82.129 77.462 68.503 81.87 54.701 81.933c-13.756.062-27.68-4.197-39.546-12.578a70.135 70.135 0 01-8.242-6.821c1.82 9.569 6.511 18.134 13.126 24.75 8.614 8.614 20.532 13.963 33.67 13.963 13.137 0 25.055-5.349 33.669-13.963 6.827-6.828 11.602-15.731 13.291-25.671zm-47.62-13.009c.513 0 1.008.073 1.476.21a2.439 2.439 0 003.504 3.389 5.244 5.244 0 11-4.98-3.599zm0-13.499c5.174 0 9.859 2.098 13.252 5.49a18.682 18.682 0 015.489 13.252c0 5.174-2.098 9.86-5.489 13.251a18.68 18.68 0 01-13.252 5.49c-5.175 0-9.86-2.098-13.252-5.49a18.684 18.684 0 01-5.49-13.251c0-5.175 2.098-9.86 5.49-13.252a18.68 18.68 0 0113.252-5.49zm9.021 9.72a12.717 12.717 0 00-9.021-3.736 12.722 12.722 0 00-9.022 3.736c-2.308 2.308-3.736 5.499-3.736 9.022s1.428 6.714 3.736 9.022a12.72 12.72 0 009.022 3.736 12.72 12.72 0 009.021-3.736c2.308-2.308 3.736-5.498 3.736-9.022s-1.428-6.715-3.736-9.022zm-49.217 3.069a74.937 74.937 0 00-5.786 5.888 64.32 64.32 0 0011.615 10.557C29.507 71.983 42.18 75.87 54.677 75.813c12.449-.056 24.738-4.031 34.853-12.104a56.557 56.557 0 009.521-9.718 85.522 85.522 0 00-7.345-6.835C78.861 36.564 64.754 31.618 51.071 31.891c-13.651.273-26.952 5.749-38.218 16.003z"/></svg><svg viewBox="0 0 6 11" id="tooltip" xmlns="http://www.w3.org/2000/svg"><path d="M3.78 7.852H2.184a4.09 4.09 0 01.14-1.31c.121-.38.28-.691.476-.933.205-.25.41-.478.616-.682.205-.204.401-.427.588-.669.196-.25.327-.51.392-.78.075-.547-.037-.974-.336-1.28-.299-.317-.69-.474-1.176-.474-.364 0-.695.12-.994.362a1.447 1.447 0 00-.532.96H0C.037 2.147.313 1.465.826 1 1.349.535 2.03.303 2.87.303 3.645.284 4.321.475 4.9.874c.588.4.938.924 1.05 1.574.056.353.065.66.028.92a2.336 2.336 0 01-.322.946c-.168.288-.36.543-.574.766-.205.223-.41.46-.616.71a2.934 2.934 0 00-.504.892c-.13.343-.191.733-.182 1.17zm-.154 2.2a.903.903 0 01-.644.237c-.261 0-.485-.079-.672-.237a.782.782 0 01-.266-.613c0-.25.089-.454.266-.612.187-.158.41-.237.672-.237.261 0 .476.079.644.237a.782.782 0 01.266.612.784.784 0 01-.266.613z"/></svg><svg data-name="Layer 1" viewBox="0 0 105.7 122.88" id="trash" xmlns="http://www.w3.org/2000/svg"><path d="M30.46 14.57V5.22A5.18 5.18 0 0132 1.55 5.19 5.19 0 0135.68 0H70a5.22 5.22 0 013.67 1.53A5.22 5.22 0 0175.2 5.2v9.35h27.08a3.36 3.36 0 013.38 3.37v11.66a3.38 3.38 0 01-3.34 3.42h-3.81l-8.3 87.22a3 3 0 01-2.95 2.69H18.43a3 3 0 01-3-2.95L7.19 33H3.37A3.38 3.38 0 010 29.58V17.94a3.36 3.36 0 013.37-3.37zm36.27 0V8.51H39v6.06zM49.48 49.25a3.4 3.4 0 016.8 0v51.81a3.4 3.4 0 11-6.8 0V49.25zM69.59 49a3.4 3.4 0 116.78.42L73 101.27a3.4 3.4 0 01-6.78-.43L69.59 49zm-40.26.42A3.39 3.39 0 1136.1 49l3.41 51.8a3.39 3.39 0 11-6.77.43l-3.41-51.77zm63.18-16.04H13.19l7.94 83.55h63.43l8-83.55z"/></svg></svg>